<svg width="20" height="20" viewBox="0 0 20 20" fill="none" xmlns="http://www.w3.org/2000/svg">
<path fill-rule="evenodd" clip-rule="evenodd" d="M19.9995 10C19.9995 4.47715 15.5224 0 9.99954 0C4.50903 0 0.0520092 4.42487 0 9.90309C0.101343 10.0076 0.233297 10.0977 0.395596 10.1783C0.85758 10.4077 1.47946 10.5 1.99954 10.5H2.01491C2.00471 10.3346 1.99954 10.1679 1.99954 10C1.99954 9.3094 2.08705 8.63924 2.25157 8H6.07956C6.02708 8.64622 5.99954 9.31507 5.99954 10C5.99954 10.6849 6.02708 11.3538 6.07956 12H1.99954C1.46956 12 0.784043 11.9277 0.143029 11.6975C0.949165 16.4118 5.05532 20 9.99954 20C15.5224 20 19.9995 15.5228 19.9995 10ZM17.7475 12C17.912 11.3608 17.9995 10.6906 17.9995 10C17.9995 9.3094 17.912 8.63924 17.7475 8H13.9195C13.972 8.64622 13.9995 9.31507 13.9995 10C13.9995 10.6849 13.972 11.3538 13.9195 12H17.7475ZM11.9995 10C11.9995 9.30644 11.969 8.63728 11.9124 8H8.08672C8.03013 8.63728 7.99954 9.30644 7.99954 10C7.99954 10.6936 8.03013 11.3627 8.08672 12H11.9124C11.969 11.3627 11.9995 10.6936 11.9995 10ZM16.9293 6H13.6667C13.4261 4.62334 13.0651 3.40828 12.617 2.43801C14.4462 3.07104 15.9742 4.34903 16.9293 6ZM16.9293 14C15.9742 15.651 14.4462 16.929 12.617 17.562C13.0651 16.5917 13.4261 15.3767 13.6667 14H16.9293ZM9.02807 16.3283C8.76663 15.6747 8.53982 14.8885 8.36621 14H11.6329C11.4593 14.8885 11.2325 15.6747 10.971 16.3283C10.6649 17.0937 10.3503 17.5788 10.1034 17.8399C10.0631 17.8826 10.0284 17.9155 9.99954 17.9407C9.97064 17.9155 9.93601 17.8826 9.89567 17.8399C9.64874 17.5788 9.33422 17.0937 9.02807 16.3283ZM7.38208 17.562C6.93396 16.5917 6.57297 15.3767 6.33238 14H3.0698C4.02483 15.651 5.55292 16.929 7.38208 17.562ZM3.0698 6H6.33238C6.57297 4.62334 6.93396 3.40828 7.38208 2.43801C5.55292 3.07104 4.02483 4.34903 3.0698 6ZM9.02807 3.67171C8.76663 4.32531 8.53982 5.11152 8.36621 6H11.6329C11.4593 5.11152 11.2325 4.32531 10.971 3.67171C10.6649 2.90634 10.3503 2.42118 10.1034 2.16007C10.0631 2.11741 10.0284 2.08451 9.99954 2.05929C9.97064 2.08451 9.93601 2.11741 9.89567 2.16007C9.64874 2.42118 9.33422 2.90634 9.02807 3.67171Z" fill="#001A41"/>
</svg>
