<svg width="32" height="32" viewBox="0 0 32 32" fill="none" xmlns="http://www.w3.org/2000/svg">
<g filter="url(#filter0_d_1312_4519)">
<rect x="4" y="4" width="24" height="23.9996" rx="11.9998" fill="url(#paint0_linear_1312_4519)"/>
<path d="M10.5826 18.1778H7.2616C7.04189 18.1778 6.83361 18.0627 6.73233 17.8658C6.61717 17.6412 6.65882 17.3708 6.83606 17.1936L9.14673 14.8854H7.49194C7.03617 14.8854 6.66699 14.517 6.66699 14.0613H9.72583C9.94554 14.0613 10.1538 14.1764 10.2551 14.3733C10.3703 14.5979 10.3286 14.8682 10.1514 15.0455L7.8407 17.3537H9.75686C10.2126 17.3537 10.5826 17.7221 10.5826 18.1778ZM23.7254 14C23.2501 14 22.8221 14.205 22.5297 14.5342C22.234 14.205 21.8068 14 21.3339 14C20.4501 14 19.7297 14.7539 19.7297 15.6336V18.1778C20.1855 18.1778 20.5547 17.8095 20.5547 17.3537V15.6246C20.5547 15.1998 20.8838 14.8405 21.3061 14.8233C21.7504 14.8062 22.1196 15.1639 22.1196 15.605V17.3537C22.1196 17.8095 22.488 18.1778 22.9446 18.1778V15.6246C22.9446 15.1998 23.2737 14.8405 23.696 14.8233C24.1403 14.8062 24.5095 15.1639 24.5095 15.605V17.3537C24.5095 17.8095 24.8779 18.1778 25.3337 18.1778V15.6336C25.3312 14.7539 24.6108 14 23.7271 14H23.7254ZM14.7425 16.1204C14.7425 17.29 13.7909 18.2407 12.6205 18.2407C11.45 18.2407 10.4985 17.29 10.4985 16.1204C10.4985 14.9507 11.4525 14 12.6205 14C13.7885 14 14.7425 14.9507 14.7425 16.1204ZM13.9175 16.1204C13.9175 15.4065 13.3352 14.8241 12.6205 14.8241C11.9058 14.8241 11.3234 15.4065 11.3234 16.1204C11.3234 16.8342 11.9058 17.4166 12.6205 17.4166C13.3352 17.4166 13.9175 16.8342 13.9175 16.1204ZM19.3156 16.1204C19.3156 17.29 18.3641 18.2407 17.1936 18.2407C16.0232 18.2407 15.0716 17.29 15.0716 16.1204C15.0716 14.9507 16.0256 14 17.1936 14C18.3616 14 19.3156 14.9507 19.3156 16.1204ZM18.4907 16.1204C18.4907 15.4065 17.9083 14.8241 17.1936 14.8241C16.479 14.8241 15.8966 15.4065 15.8966 16.1204C15.8966 16.8342 16.479 17.4166 17.1936 17.4166C17.9083 17.4166 18.4907 16.8342 18.4907 16.1204Z" fill="white"/>
</g>
<defs>
<filter id="filter0_d_1312_4519" x="0" y="0" width="32" height="32" filterUnits="userSpaceOnUse" color-interpolation-filters="sRGB">
<feFlood flood-opacity="0" result="BackgroundImageFix"/>
<feColorMatrix in="SourceAlpha" type="matrix" values="0 0 0 0 0 0 0 0 0 0 0 0 0 0 0 0 0 0 127 0" result="hardAlpha"/>
<feOffset/>
<feGaussianBlur stdDeviation="2"/>
<feColorMatrix type="matrix" values="0 0 0 0 0 0 0 0 0 0 0 0 0 0 0 0 0 0 0.15 0"/>
<feBlend mode="normal" in2="BackgroundImageFix" result="effect1_dropShadow_1312_4519"/>
<feBlend mode="normal" in="SourceGraphic" in2="effect1_dropShadow_1312_4519" result="shape"/>
</filter>
<linearGradient id="paint0_linear_1312_4519" x1="9.64356" y1="27.0177" x2="22.288" y2="5.14586" gradientUnits="userSpaceOnUse">
<stop stop-color="#0845BF"/>
<stop offset="0.19" stop-color="#0950DE"/>
<stop offset="0.38" stop-color="#0B59F6"/>
<stop offset="0.5" stop-color="#0B5CFF"/>
<stop offset="0.67" stop-color="#0E5EFE"/>
<stop offset="0.78" stop-color="#1665FC"/>
<stop offset="0.86" stop-color="#246FF9"/>
<stop offset="0.94" stop-color="#387FF4"/>
<stop offset="1" stop-color="#4F90EE"/>
</linearGradient>
</defs>
</svg>
